<svg version="1.1" xmlns="http://www.w3.org/2000/svg" viewBox="0 0 180 180">
  <path fill="black" d="M104.5,54 C116,54 127,58 133,66 C137,71 138,77 134,80 C131,82 127,81 125,78 C120,71 111,68 104.5,68 C92,68 84,78 84,92 C84,104 90,111 99,111 C105,111 110,108 113,104 C115,101 119,100 122,102 C125,104 126,108 124,111 C117,122 108,126 99,126 C81,126 69,113 69,92 C69,69 83,54 104.5,54 Z M25,65 L85,65 L85,69 L25,69 Z M35,74 L80,74 L80,78 L35,78 Z M45,83 L76,83 L76,87 L45,87 Z M52,92 L73,92 L73,96 L52,96 Z" />
  <path fill="black" d="M110,108 C118,110 122,115 122,122 C122,135 114,148 102,156 L94,152 C102,146 106,136 106,127 C106,121 104,116 98,114 Z" />
</svg>
